HIERARCHY
ROOT root     
{
	OFFSET 0.0000 0.0000 0.0000
	CHANNELS 6 Xposition Yposition Zposition Zrotation Yrotation Xrotation
	JOINT pelvis   
	{
		OFFSET 0.0000 0.0000 0.0000
		CHANNELS 3 Zrotation Yrotation Xrotation
		JOINT thorax   
		{
			OFFSET 0.0000 23.0750 -5.0000
			CHANNELS 3 Zrotation Yrotation Xrotation
			JOINT rclavicle
			{
				OFFSET 0.0000 28.0009 0.0000
				CHANNELS 3 Zrotation Yrotation Xrotation
				JOINT rhumerus 
				{
					OFFSET -18.5725 5.5939 0.0000
					CHANNELS 3 Zrotation Yrotation Xrotation
					JOINT rradius  
					{
						OFFSET -24.8459 0.0000 0.0000
						CHANNELS 3 Zrotation Yrotation Xrotation
						JOINT rhand    
						{
							OFFSET -24.5477 0.0000 0.0000
							CHANNELS 3 Zrotation Yrotation Xrotation
							End Site
							{
								OFFSET -8.1826 0.0000 0.0000
							}
						}
					}
				}
			}
			JOINT lclavicle
			{
				OFFSET 0.0000 28.0009 0.0000
				CHANNELS 3 Zrotation Yrotation Xrotation
				JOINT lhumerus 
				{
					OFFSET 18.5725 5.5939 0.0000
					CHANNELS 3 Zrotation Yrotation Xrotation
					JOINT lradius  
					{
						OFFSET 24.8459 0.0000 0.0000
						CHANNELS 3 Zrotation Yrotation Xrotation
						JOINT lhand    
						{
							OFFSET 24.5477 0.0000 0.0000
							CHANNELS 3 Zrotation Yrotation Xrotation
							End Site
							{
								OFFSET 8.1826 0.0000 0.0000
							}
						}
					}
				}
			}
			JOINT head     
			{
				OFFSET 0.0000 35.2030 0.0000
				CHANNELS 3 Zrotation Yrotation Xrotation
				End Site
				{
					OFFSET 0.0000 11.7343 0.0000
				}
			}
		}
		JOINT rfemur   
		{
			OFFSET -8.2817 0.0000 0.0000
			CHANNELS 3 Zrotation Yrotation Xrotation
			JOINT rtibia   
			{
				OFFSET 0.0000 -43.3627 0.0000
				CHANNELS 3 Zrotation Yrotation Xrotation
				JOINT rfoot    
				{
					OFFSET 0.0000 -38.2947 0.0000
					CHANNELS 3 Zrotation Yrotation Xrotation
					JOINT rtoes    
					{
						OFFSET 0.0000 0.0000 16.6054
						CHANNELS 3 Zrotation Yrotation Xrotation
						End Site
						{
							OFFSET 0.0000 0.0000 5.5351
						}
					}
				}
			}
		}
		JOINT lfemur   
		{
			OFFSET 8.2817 0.0000 0.0000
			CHANNELS 3 Zrotation Yrotation Xrotation
			JOINT ltibia   
			{
				OFFSET 0.0000 -43.3627 0.0000
				CHANNELS 3 Zrotation Yrotation Xrotation
				JOINT lfoot    
				{
					OFFSET 0.0000 -38.2947 0.0000
					CHANNELS 3 Zrotation Yrotation Xrotation
					JOINT ltoes    
					{
						OFFSET 0.0000 0.0000 16.6054
						CHANNELS 3 Zrotation Yrotation Xrotation
						End Site
						{
							OFFSET 0.0000 0.0000 5.5351
						}
					}
				}
			}
		}
	}
}
MOTION
Frames: 19
Frame Time: .0333333
-40.071 79.345 -9.0334 61.4373 86.3155 87.9637 0 -0 0 1.1847 6.38954 23.1647 18.4382 -7.87272 -1.38775e-05 47.4492 -6.40123 2.9463 180 72.9999 180 -7.48012 0.527199 -0.0345 -13.4037 19.488 4.08278e-05 -58.8262 37.1009 11.4881 180 -89.2227 180 -2.93143 3.29962 -0.084501 8.95563 -17.2718 -11.1006 9.01539 -14.4452 -37.8899 -0 -0 58.794 4.49461e-07 0.1827 -12.4865 -0.0394999 -4.16689e-07 -40.3505 -8.33597 4.13428 -65.3584 -0 -0 50.145 8.18785e-06 4.64248 -4.26702 -0.346198 -4.70834e-07 -34.3393 
-38.977 79.266 -8.9129 54.0444 86.252 80.5904 0 -0 0 1.0146 6.75789 23.1883 18.3156 -7.86652 -1.16593e-05 47.2167 -6.6803 3.01228 180 72.3243 180 -7.35927 0.472597 -0.0303997 -13.3375 19.804 -8.91531e-06 -59.0442 37.4258 11.3326 180 -89.0714 -180 -2.74709 3.18022 -0.0762998 8.85541 -17.2364 -11.2606 8.92225 -14.6268 -37.059 -0 -0 58.7217 -9.33337e-07 0.840798 -12.1031 -0.176305 -1.10724e-06 -42.0721 -8.82452 4.29484 -65.6404 -0 -0 47.3699 -2.19397e-06 4.04546 -3.56411 -0.251898 1.64528e-06 -35.5602 
-37.843 79.152 -8.7818 46.7215 86.1574 73.2262 0 -0 0 0.86602 7.09497 23.22 18.2133 -7.86444 2.60257e-05 47.0273 -6.95092 3.09805 -180 71.7124 -180 -7.20813 0.445895 -0.0281005 -13.285 20.0899 1.9957e-05 -59.2501 37.7098 11.1851 180 -88.8922 -180 -2.5208 3.08923 -0.0680012 8.76097 -17.1909 -11.4113 8.81754 -14.7914 -36.1546 -0 -0 58.7025 9.57397e-06 1.49969 -11.674 -0.303498 1.83942e-06 -44.1889 -9.15598 4.43069 -65.7919 -0 -0 44.9128 -7.53839e-07 3.46106 -2.75168 -0.166403 -1.03969e-06 -36.6283 
-36.669 79.002 -8.6403 39.6239 86.0293 66.0247 0 -0 0 0.733222 7.39747 23.2524 18.1363 -7.86677 -5.77673e-05 46.8778 -7.21283 3.20291 180 71.164 180 -7.0277 0.453298 -0.0278 -13.2409 20.3433 -3.45133e-05 -59.4456 37.9482 11.0517 180 -88.703 180 -2.26705 3.01925 -0.0597995 8.67757 -17.1373 -11.5489 8.6972 -14.9444 -35.1876 -0 -0 58.7451 -6.86034e-06 2.16035 -11.2279 -0.420805 2.89687e-07 -46.5073 -9.29878 4.52417 -65.8514 -0 -0 42.9032 -4.15678e-07 2.95443 -1.87762 -0.0969014 7.2651e-08 -37.4739 
-35.462 78.816 -8.4878 32.9234 85.8652 59.1709 0 -0 0 0.610803 7.66112 23.2745 18.0844 -7.87255 3.85341e-05 46.7716 -7.46655 3.3289 180 70.6836 180 -6.82183 0.4967 -0.0295996 -13.201 20.564 -4.26651e-06 -59.6261 38.1387 10.9355 180 -88.6093 -180 -2.00175 2.96458 -0.0518013 8.61184 -17.0726 -11.672 8.56194 -15.0847 -34.1788 -0 -0 58.8639 8.19974e-06 2.81213 -10.7616 -0.525497 8.158e-06 -49.053 -9.23488 4.56661 -65.8625 -0 -0 41.4595 -9.49558e-07 2.57805 -0.997896 -0.0448998 4.43584e-08 -38.0811 
-34.227 78.594 -8.3252 26.71 85.6634 52.7675 0 -0 0 0.487656 7.88367 23.2675 18.0589 -7.88531 7.11467e-07 46.7087 -7.70805 3.48265 180 70.2698 180 -6.59739 0.573398 -0.0329998 -13.171 20.7474 -1.49058e-05 -59.779 38.2843 10.8325 180 -88.4959 180 -1.74126 2.92161 -0.0443992 8.56905 -16.9942 -11.778 8.40874 -15.2082 -33.1582 -0 -0 59.0714 -3.19053e-06 3.44813 -10.2878 -0.616511 -2.62185e-07 -51.6748 -8.96458 4.55057 -65.8738 -0 -0 40.6627 -9.55843e-09 2.37255 -0.170104 -0.00700002 5.04627e-08 -38.4441 
-32.97 78.337 -8.1544 21.0755 85.4198 46.9191 0 -0 0 0.349283 8.06637 23.2244 18.0611 -7.90468 1.54398e-05 46.6872 -7.93622 3.66791 180 69.9307 180 -6.35936 0.675694 -0.0375003 -13.1552 20.8925 8.9969e-05 -59.9013 38.3828 10.7403 180 -88.4249 -180 -1.49665 2.88365 -0.0376991 8.55599 -16.9 -11.8697 8.22872 -15.3065 -32.1492 -0 -0 59.3862 5.9761e-06 4.05795 -9.7837 -0.690696 6.09994e-06 -54.4705 -8.50317 4.47622 -65.9112 -0 -0 40.5503 -1.2133e-07 2.36159 0.552696 0.0228006 1.95877e-07 -38.5476 
-31.691 78.047 -7.976 16.0128 85.1274 41.6153 0 -0 0 0.185659 8.21984 23.1476 18.093 -7.92359 -7.44994e-05 46.71 -8.16159 3.88069 180 69.6547 180 -6.11217 0.794493 -0.0424005 -13.1526 20.9993 9.76766e-05 -59.9885 38.427 10.6535 180 -88.3664 -180 -1.28234 2.84566 -0.0318016 8.57618 -16.7869 -11.9494 8.01143 -15.3662 -31.1561 -0 -0 59.8205 8.05943e-06 4.64875 -9.2814 -0.751399 -2.89e-06 -57.0717 -7.89054 4.36879 -65.9859 -0 -0 41.1259 -4.8782e-07 2.5312 1.1153 0.0493005 -3.41047e-07 -38.2902 
-30.394 77.726 -7.7914 11.5173 84.7908 36.8507 0 -0 0 -0.0143172 8.35593 23.0401 18.1536 -7.93836 7.01142e-07 46.7793 -8.38768 4.1201 180 69.4462 180 -5.85797 0.921095 -0.0470997 -13.1755 21.0701 -9.99555e-05 -60.0326 38.4109 10.5702 180 -88.3186 -180 -1.10371 2.80695 -0.027 8.63008 -16.6524 -12.0208 7.74658 -15.3686 -30.191 -0 -0 60.3877 3.01567e-06 5.21797 -8.74405 -0.795398 4.95723e-07 -59.5709 -7.17445 4.25553 -66.0924 -0 -0 42.3371 -1.0955e-06 2.85878 1.48609 0.0742002 -4.23599e-07 -37.6175 
-29.078 77.377 -7.6016 7.59502 84.3737 32.6322 0 -0 0 -0.259299 8.48984 22.9101 18.2434 -7.94515 1.16733e-05 46.8958 -8.61813 4.38147 -180 69.2908 -180 -5.59687 1.04891 -0.0512996 -13.2359 21.1031 7.45204e-05 -60.0229 38.327 10.4838 180 -88.3072 -180 -0.963513 2.76835 -0.0233 8.71423 -16.4955 -12.0874 7.42347 -15.2893 -29.2569 -0 -0 61.0946 3.40616e-06 5.77183 -8.14901 -0.820895 5.78951e-06 -61.8788 -6.409 4.17083 -66.2118 -0 -0 44.0869 -1.80804e-06 3.3094 1.64295 0.0949997 6.15551e-07 -36.4741 
-27.747 77.006 -7.4066 4.25032 83.8802 28.9611 0 -0 0 -0.555417 8.63594 22.7692 18.3641 -7.93651 -1.84772e-06 47.0647 -8.85873 4.65431 180 69.1954 180 -5.32527 1.17481 -0.0545999 -13.3463 21.102 0.000196724 -59.9498 38.1613 10.3912 180 -88.3056 -180 -0.859289 2.73526 -0.0205001 8.82425 -16.3149 -12.1541 7.03742 -15.1081 -28.3618 -0 -0 61.9458 1.53466e-06 6.31422 -7.44846 -0.821803 -4.25559e-06 -64.0444 -5.64894 4.15126 -66.3107 -0 -0 46.2509 4.68846e-07 3.84447 1.57383 0.105699 3.13924e-07 -34.8666 
-26.404 76.62 -7.2062 1.4786 83.29 25.8387 0 -0 0 -0.907872 8.8046 22.6217 18.523 -7.9068 -1.41418e-05 47.2902 -9.11315 4.925 180 69.1515 180 -5.03774 1.30019 -0.0571989 -13.5192 21.0706 -1.38631e-05 -59.808 37.8955 10.2896 180 -88.3162 -180 -0.785094 2.7151 -0.0185997 8.95323 -16.1134 -12.2249 6.5892 -14.8051 -27.5174 -0 -0 62.9366 -8.33492e-06 6.8487 -6.59279 -0.789997 -5.24932e-06 -66.0758 -4.9409 4.22608 -66.3575 -0 -0 48.6814 1.94013e-06 4.43344 1.27524 0.098901 -4.44764e-07 -32.8897 
-25.054 76.228 -6.9996 -0.740015 82.6106 23.2495 0 -0 0 -1.31767 9.00073 22.4686 18.7243 -7.8523 -4.03058e-05 47.5775 -9.38163 5.17819 -180 69.1644 -180 -4.72753 1.42995 -0.0589986 -13.7655 21.0068 -8.07933e-05 -59.5898 37.517 10.1692 180 -88.3704 -180 -0.731599 2.71763 -0.0174001 9.0908 -15.893 -12.301 6.08722 -14.366 -26.7443 -0 -0 64.0623 -3.31593e-06 7.37588 -5.53398 -0.715202 -4.02847e-06 -67.9714 -4.3191 4.41561 -66.3272 -0 -0 51.233 5.03241e-07 5.05537 0.750487 0.0663987 -2.46922e-07 -30.7263 
-23.706 75.841 -6.7854 -2.45619 81.834 21.1611 0 -0 0 -1.78238 9.22277 22.3062 18.9732 -7.77101 -6.12679e-05 47.9315 -9.66366 5.39644 180 69.2366 180 -4.38846 1.57224 -0.0602025 -14.0944 20.9085 4.81037e-05 -59.295 37.008 10.0278 180 -88.4443 180 -0.687811 2.75464 -0.0165001 9.22632 -15.6584 -12.3822 5.54886 -13.7867 -26.0684 -0 -0 65.3108 2.37529e-06 7.88999 -4.22957 -0.585599 -5.63733e-06 -69.7202 -3.80348 4.72982 -66.2068 -0 -0 53.779 1.18288e-08 5.69902 0.00830013 0.000799992 5.16567e-09 -28.6129 
-22.368 75.468 -6.5628 -3.75649 80.9781 19.4949 0 -0 0 -2.29643 9.4625 22.1299 19.2763 -7.66213 -5.47044e-05 48.3613 -9.95725 5.56383 180 69.3769 180 -4.01613 1.73643 -0.0609019 -14.5014 20.7828 1.51066e-05 -58.9259 36.3471 9.86487 180 -88.6126 -180 -0.641098 2.84029 -0.0158999 9.34835 -15.4142 -12.465 4.99441 -13.0766 -25.5152 -0 -0 66.6683 8.97207e-07 8.37935 -2.65004 -0.390198 3.52736e-06 -71.2858 -3.401 5.16846 -65.9911 -0 -0 56.2164 -6.9249e-08 6.35966 -0.939093 -0.1047 -2.95486e-07 -26.7779 
-21.047 75.118 -6.3307 -4.73024 80.0581 18.1758 0 -0 0 -2.84724 9.70761 21.9329 19.6326 -7.52997 -1.67721e-06 48.8695 -10.2569 5.66879 180 69.6 180 -3.61042 1.93068 -0.0609 -14.993 20.6172 -9.49463e-05 -58.4887 35.5341 9.66839 180 -88.8265 -180 -0.580892 2.98473 -0.0150999 9.44264 -15.1649 -12.5415 4.44751 -12.2507 -25.1064 -0 -0 68.1161 -6.13201e-07 8.82282 -0.797505 -0.1238 1.67155e-07 -72.557 -3.10472 5.7222 -65.6854 -0 -0 58.4758 2.47112e-06 7.03471 -2.0739 -0.255893 1.05539e-06 -25.3921 
-19.747 74.8 -6.0886 -5.4623 79.0969 17.1191 0 -0 0 -3.42223 9.94105 21.7166 20.0423 -7.38054 1.49464e-05 49.4638 -10.5561 5.70337 -180 69.9219 -180 -3.17581 2.16096 -0.0599016 -15.5498 20.418 8.70542e-05 -57.9988 34.5539 9.44071 180 -89.1082 -180 -0.496399 3.19817 -0.0138999 9.49787 -14.9134 -12.6025 3.92967 -11.3413 -24.8542 -0 -0 69.6359 -5.23763e-07 9.18874 1.303 0.210802 -1.55753e-06 -73.4238 -2.90062 6.37396 -65.2932 -0 -0 60.5175 2.80923e-06 7.72109 -3.37173 -0.456891 -6.23069e-07 -24.5529 
-18.471 74.517 -5.8362 -6.01991 78.1156 16.261 0 -0 0 -4.00477 10.1428 21.4808 20.4966 -7.22311 -1.49111e-05 50.1469 -10.8464 5.66635 -180 70.358 -180 -2.72298 2.42791 -0.0577024 -16.1577 20.1875 -1.64459e-05 -57.4713 33.4058 9.18085 180 -89.5043 180 -0.379703 3.48742 -0.0116002 9.50362 -14.6618 -12.6367 3.45916 -10.3815 -24.7585 -0 -0 71.2062 -1.84701e-07 9.43261 3.59505 0.596801 5.82125e-06 -73.7568 -2.76773 7.10003 -64.8197 -0 -0 62.3213 -4.903e-06 8.41263 -4.79867 -0.708801 4.97751e-06 -24.2791 
-17.221 74.274 -5.5737 -6.46579 77.1269 15.5386 0 -0 0 -4.57598 10.2916 21.2288 20.9849 -7.06799 -1.68988e-05 50.9172 -11.1199 5.56288 -180 70.9304 -180 -2.2679 2.72585 -0.0539993 -16.8045 19.9171 2.96906e-05 -56.9251 32.1064 8.87463 -0.00685542 -89.8181 0.00685559 -0.227197 3.85293 -0.00760001 9.4516 -14.4081 -12.6312 3.05239 -9.41254 -24.8138 -0 -0 72.8122 -5.61032e-06 9.4975 5.99033 1.0003 1.04226e-05 -73.4412 -2.68088 7.87211 -64.2682 -0 -0 63.8873 -3.9144e-06 9.10086 -6.31008 -1.00869 4.02847e-06 -24.5303 
